#!OML:ASF F:\VICON\USERDATA\INSTALL\rory3\rory3.ASF
:FULLY-SPECIFIED
:DEGREES
480
root 2.22392 16.5396 15.7295 25.7504 1.3821 1.30695
lowerback -18.8239 0.0810198 0.16492
upperback -7.16739 0.0824518 0.0462608
thorax 2.83542 0.0421634 -0.0273894
lowerneck -11.5821 -0.363852 -0.601243
upperneck 37.8724 -0.553811 0.497033
head 15.1523 -0.241798 0.232471
rclavicle -5.10628e-015 -1.98785e-015
rhumerus -58.5702 40.3115 -107.374
rradius 43.772
rwrist -26.3857
rhand 22.8118 3.59899
rfingers 7.12502
rthumb 47.1449 -19.0031
lclavicle -5.10628e-015 -1.98785e-015
lhumerus -68.5901 -37.8547 114.394
lradius 45.2881
lwrist 16.6502
lhand 26.9115 20.2963
lfingers 7.12502
lthumb 50.9101 41.0277
rfemur -42.4233 1.97141 31.6916
rtibia 41.6117
rfoot -46.6656 -28.3348
rtoes 32.185
lfemur -24.3648 16.5896 -28.4454
ltibia 51.8034
lfoot -14.6454 49.7849
ltoes 45.9245
481
root 2.21767 16.5444 15.7449 25.6277 1.35809 1.32752
lowerback -18.7667 0.0574336 0.10847
upperback -7.09927 0.0610385 0.0504403
thorax 2.87844 0.0322345 0.0045932
lowerneck -11.7016 -0.339 -0.454584
upperneck 38.0054 -0.495842 0.332544
head 15.2448 -0.218492 0.146027
rclavicle 2.21148e-015 1.39149e-015
rhumerus -58.8358 40.7043 -107.599
rradius 44.2579
rwrist -26.5571
rhand 22.8868 3.52233
rfingers 7.12502
rthumb 47.2142 -19.0489
lclavicle 2.21148e-015 1.39149e-015
lhumerus -69.2516 -38.5034 115.228
lradius 45.8633
lwrist 16.9866
lhand 26.6285 20.3936
lfingers 7.12502
lthumb 50.652 41.2672
rfemur -42.2076 1.90631 31.6924
rtibia 41.613
rfoot -46.6539 -28.3173
rtoes 32.0844
lfemur -24.5535 16.3607 -28.2697
ltibia 52.0612
lfoot 5.38314 51.3201
ltoes 36.4195
482
root 2.21307 16.5247 15.7535 25.3616 1.34266 1.19256
lowerback -18.5677 0.0922287 0.213271
upperback -7.01615 0.0867348 0.0891193
thorax 2.86411 0.0440966 -0.00884026
lowerneck -11.7601 -0.316941 -0.339341
upperneck 38.0518 -0.443905 0.198956
head 15.2807 -0.197871 0.0771459
rclavicle 1.85118e-015 -3.97569e-016
rhumerus -59.3107 41.1098 -107.951
rradius 44.8791
rwrist -26.7581
rhand 22.949 3.42863
rfingers 7.12502
rthumb 47.2718 -19.1169
lclavicle 1.85118e-015 -3.97569e-016
lhumerus -70.0136 -39.1337 116.098
lradius 46.5391
lwrist 17.1656
lhand 26.5319 20.6007
lfingers 7.12502
lthumb 50.5637 41.5223
rfemur -41.9271 1.75838 31.9279
rtibia 41.706
rfoot -46.5571 -28.4123
rtoes 32.225
lfemur -23.9094 16.1711 -27.8641
ltibia 52.3043
lfoot -17.3668 48.6635
ltoes 46.8992
483
root 2.20612 16.5138 15.7709 25.0318 1.27076 1.02186
lowerback -18.3814 0.174365 0.351631
upperback -6.91371 0.16945 0.119322
thorax 2.87697 0.0838838 -0.038726
lowerneck -11.5947 -0.318816 -0.479313
upperneck 37.9518 -0.435128 0.277612
head 15.1925 -0.203389 0.137143
rclavicle -4.84538e-015 1.19271e-015
rhumerus -59.9802 41.5609 -108.49
rradius 45.531
rwrist -27.0493
rhand 22.8525 3.3207
rfingers 7.12502
rthumb 47.1825 -19.2647
lclavicle -4.84538e-015 1.19271e-015
lhumerus -70.6501 -39.6377 116.672
lradius 47.3987
lwrist 16.975
lhand 26.7841 21.0633
lfingers 7.12502
lthumb 50.7939 41.859
rfemur -41.5398 1.84308 32.1017
rtibia 41.802
rfoot -46.6674 -28.3981
rtoes 32.374
lfemur -23.3727 15.9475 -27.3872
ltibia 52.5944
lfoot -25.6937 45.8446
ltoes 48.941
484
root 2.20083 16.5064 15.7883 24.725 1.14376 1.06186
lowerback -18.38 0.201556 0.303313
upperback -6.5997 0.212838 0.101453
thorax 3.21085 0.106097 -0.0207214
lowerneck -11.7984 -0.289313 -0.624304
upperneck 37.8471 -0.389397 0.38974
head 15.1896 -0.189266 0.217329
rclavicle 1.9133e-015 2.98177e-015
rhumerus -60.1383 42.2502 -108.709
rradius 46.2198
rwrist -27.0963
rhand 22.7789 3.27253
rfingers 7.12502
rthumb 47.1145 -19.3431
lclavicle 1.9133e-015 2.98177e-015
lhumerus -70.9597 -40.4656 117.163
lradius 48.2905
lwrist 16.8014
lhand 26.7652 21.2193
lfingers 7.12502
lthumb 50.7767 42.0245
rfemur -41.2022 1.69896 32.0997
rtibia 41.9493
rfoot -46.5507 -28.307
rtoes 32.2427
lfemur -23.0354 15.6267 -27.198
ltibia 52.9163
lfoot -25.1172 47.9775
ltoes 46.839
485
root 2.19616 16.4973 15.7967 24.433 1.06019 1.22217
lowerback -18.2242 0.180088 0.135229
upperback -6.37434 0.215604 0.0593631
thorax 3.36921 0.108506 0.0306707
lowerneck -12.013 -0.252615 -0.398242
upperneck 37.9058 -0.308195 0.154206
head 15.2679 -0.15437 0.0902409
rclavicle -5.86415e-015 5.96354e-016
rhumerus -60.6248 43.0543 -109.234
rradius 47.0665
rwrist -27.2188
rhand 22.4181 3.36475
rfingers 7.12502
rthumb 46.7807 -19.3975
lclavicle -5.86415e-015 5.96354e-016
lhumerus -71.4551 -41.3537 117.818
lradius 49.2307
lwrist 16.6185
lhand 26.6131 21.2054
lfingers 7.12502
lthumb 50.6379 42.0866
rfemur -40.9121 1.52254 31.9719
rtibia 42.0859
rfoot -46.5822 -28.1279
rtoes 32.2932
lfemur -22.8725 15.2546 -27.158
ltibia 53.3104
lfoot -20.922 49.8778
ltoes 45.3298
